<svg version="1.1" id="Layer_1" xmlns="http://www.w3.org/2000/svg" xmlns:xlink="http://www.w3.org/1999/xlink" x="0px" y="0px"
	 width="100%" viewBox="0 0 479 383" enable-background="new 0 0 479 383" xml:space="preserve">
<path fill="#010101" opacity="1.000000" stroke="none" 
	d="
M480.000000,34.000000 
	C480.000000,139.689316 480.000000,245.378616 479.719238,351.749084 
	C476.449738,357.713745 473.934204,363.344696 470.366394,368.202911 
	C464.328247,376.425018 455.257355,380.472626 446.000000,384.000000 
	C309.977356,384.000000 173.954727,384.000000 37.333908,383.665314 
	C16.354303,376.439606 4.912934,362.195374 2.002580,340.539459 
	C2.085835,243.210236 2.087728,146.343521 2.081462,49.476795 
	C2.081366,47.983879 1.980474,46.490967 2.044642,44.621471 
	C5.275832,22.875078 17.033892,8.887904 37.742413,2.500357 
	C38.570427,2.244956 39.250824,1.510989 40.000000,1.000000 
	C40.750000,1.000000 41.500000,1.000000 42.878937,1.341231 
	C44.321911,1.795843 45.135941,2.008507 45.949986,2.008556 
	C176.268997,2.016467 306.588013,2.012146 436.906982,1.960829 
	C438.271454,1.960292 439.635681,1.334112 441.000000,1.000001 
	C441.000000,1.000000 441.500000,1.000000 441.871429,1.362525 
	C447.060547,3.385994 452.106537,4.579512 456.651245,6.799377 
	C468.250641,12.465149 475.240021,22.334137 480.000000,34.000000 
M405.500000,48.918419 
	C287.073975,48.918419 168.647934,48.918419 50.151062,48.918419 
	C50.151062,145.221588 50.151062,240.962570 50.151062,336.716400 
	C178.252792,336.716400 306.112305,336.716400 433.764099,336.716400 
	C433.764099,240.606964 433.764099,144.862885 433.764099,48.918419 
	C424.464417,48.918419 415.482208,48.918419 405.500000,48.918419 
z"/>
<path fill="#FAFAFA" opacity="1.000000" stroke="none" 
	d="
M39.531342,1.000000 
	C39.250824,1.510989 38.570427,2.244956 37.742413,2.500357 
	C17.033892,8.887904 5.275832,22.875078 1.812984,44.620834 
	C1.463306,44.996777 1.000000,45.000000 1.000000,45.000000 
	C1.000000,30.411076 1.000000,15.822152 1.000000,1.000000 
	C13.686609,1.000000 26.374645,1.000000 39.531342,1.000000 
z"/>
<path fill="#FAFAFA" opacity="1.000000" stroke="none" 
	d="
M1.920496,341.001953 
	C4.912934,362.195374 16.354303,376.439606 36.867867,383.665314 
	C25.066851,384.000000 13.133701,384.000000 1.000000,384.000000 
	C1.000000,369.979736 1.000000,355.958527 1.230122,341.470276 
	C1.460243,341.003235 1.920496,341.001953 1.920496,341.001953 
z"/>
<path fill="#F9F9F9" opacity="1.000000" stroke="none" 
	d="
M480.000000,33.531342 
	C475.240021,22.334137 468.250641,12.465149 456.651245,6.799377 
	C452.106537,4.579512 447.060547,3.385994 442.121429,1.362525 
	C454.588104,1.000000 467.176178,1.000000 480.000000,1.000000 
	C480.000000,11.686407 480.000000,22.374546 480.000000,33.531342 
z"/>
<path fill="#292929" opacity="1.000000" stroke="none" 
	d="
M440.531342,1.000001 
	C439.635681,1.334112 438.271454,1.960292 436.906982,1.960829 
	C306.588013,2.012146 176.268997,2.016467 45.949986,2.008556 
	C45.135941,2.008507 44.321911,1.795843 43.253937,1.341231 
	C175.354233,1.000000 307.708466,1.000000 440.531342,1.000001 
z"/>
<path fill="#F9F9F9" opacity="1.000000" stroke="none" 
	d="
M446.468658,384.000000 
	C455.257355,380.472626 464.328247,376.425018 470.366394,368.202911 
	C473.934204,363.344696 476.449738,357.713745 479.719238,352.215149 
	C480.000000,362.595459 480.000000,373.190887 480.000000,384.000000 
	C468.980011,384.000000 457.958679,384.000000 446.468658,384.000000 
z"/>
<path fill="#F5F5F5" opacity="1.000000" stroke="none" 
	d="
M2.002580,340.539459 
	C1.920496,341.001953 1.460243,341.003235 1.230122,341.001617 
	C1.000000,242.645767 1.000000,144.291550 1.000000,45.468658 
	C1.000000,45.000000 1.463306,44.996777 1.694964,44.997414 
	C1.980474,46.490967 2.081366,47.983879 2.081462,49.476795 
	C2.087728,146.343521 2.085835,243.210236 2.002580,340.539459 
z"/>
<path fill="#FFFFFF" opacity="1.000000" stroke="none" 
	d="
M406.000000,48.918419 
	C415.482208,48.918419 424.464417,48.918419 433.764099,48.918419 
	C433.764099,144.862885 433.764099,240.606964 433.764099,336.716400 
	C306.112305,336.716400 178.252792,336.716400 50.151062,336.716400 
	C50.151062,240.962570 50.151062,145.221588 50.151062,48.918419 
	C168.647934,48.918419 287.073975,48.918419 406.000000,48.918419 
M142.701996,175.797668 
	C148.411575,181.506989 154.121140,187.216293 160.198044,193.292923 
	C158.138336,195.121658 156.572739,196.377396 155.160034,197.786438 
	C138.647079,214.256378 122.105247,230.697906 105.678307,247.253372 
	C93.577858,259.448486 95.913460,277.594391 110.568916,286.400238 
	C119.835136,291.967926 131.177444,289.856323 140.454254,280.610474 
	C163.700089,257.442230 186.900085,234.227844 210.076492,210.990097 
	C220.784225,200.253998 220.809402,185.781876 210.111237,175.049545 
	C186.824127,151.688034 163.496033,128.367249 140.142258,105.072350 
	C129.695572,94.651978 114.639771,94.250961 104.924652,104.012657 
	C95.212524,113.771339 95.713837,128.750870 106.161720,139.242325 
	C118.152603,151.283203 130.186523,163.281235 142.701996,175.797668 
M222.383926,279.021393 
	C227.549683,285.931824 234.524551,289.082672 243.070435,289.079071 
	C282.537292,289.062439 322.004761,289.190979 361.470734,289.001160 
	C376.122711,288.930664 386.084900,278.555450 385.918915,264.422302 
	C385.759338,250.835968 375.268127,241.077759 360.788513,241.075897 
	C321.654572,241.070831 282.520630,241.067795 243.386688,241.080307 
	C222.649353,241.086945 211.618668,260.333435 222.383926,279.021393 
z"/>
<path fill="#030303" opacity="1.000000" stroke="none" 
	d="
M142.451874,175.547775 
	C130.186523,163.281235 118.152603,151.283203 106.161720,139.242325 
	C95.713837,128.750870 95.212524,113.771339 104.924652,104.012657 
	C114.639771,94.250961 129.695572,94.651978 140.142258,105.072350 
	C163.496033,128.367249 186.824127,151.688034 210.111237,175.049545 
	C220.809402,185.781876 220.784225,200.253998 210.076492,210.990097 
	C186.900085,234.227844 163.700089,257.442230 140.454254,280.610474 
	C131.177444,289.856323 119.835136,291.967926 110.568916,286.400238 
	C95.913460,277.594391 93.577858,259.448486 105.678307,247.253372 
	C122.105247,230.697906 138.647079,214.256378 155.160034,197.786438 
	C156.572739,196.377396 158.138336,195.121658 160.198044,193.292923 
	C154.121140,187.216293 148.411575,181.506989 142.451874,175.547775 
z"/>
<path fill="#020202" opacity="1.000000" stroke="none" 
	d="
M222.179871,278.713287 
	C211.618668,260.333435 222.649353,241.086945 243.386688,241.080307 
	C282.520630,241.067795 321.654572,241.070831 360.788513,241.075897 
	C375.268127,241.077759 385.759338,250.835968 385.918915,264.422302 
	C386.084900,278.555450 376.122711,288.930664 361.470734,289.001160 
	C322.004761,289.190979 282.537292,289.062439 243.070435,289.079071 
	C234.524551,289.082672 227.549683,285.931824 222.179871,278.713287 
z"/>
</svg>