<svg width="659" height="440" viewBox="0 0 659 440" fill="none" xmlns="http://www.w3.org/2000/svg">
<rect x="0.5" y="0.5" width="657.5" height="439" rx="23.5" fill="white"/>
<rect x="0.5" y="0.5" width="657.5" height="439" rx="23.5" stroke="#E1E2E6"/>
<path d="M396.977 210.195C393.544 207.894 384.525 206.912 377.969 208.671C377.617 202.17 374.246 196.691 368.086 191.91L365.806 190.387L364.286 192.673C361.299 197.186 360.039 203.202 360.485 208.671C360.837 212.041 362.013 215.827 364.286 218.575C355.753 223.503 347.885 222.384 313.046 222.384H259.257C259.101 230.216 260.365 245.278 269.987 257.54C271.051 258.895 272.215 260.205 273.481 261.467C281.305 269.266 293.126 274.985 310.802 275C337.769 275.025 360.872 260.514 374.927 225.433C379.551 225.507 391.76 226.258 397.735 214.766C397.881 214.573 399.255 211.72 399.255 211.72L396.977 210.197V210.195ZM294.361 203.034H279.235V218.09H294.361V203.034ZM313.899 203.034H298.774V218.09H313.899V203.034ZM333.44 203.034H318.315V218.09H333.44V203.034ZM352.982 203.034H337.856V218.09H352.982V203.034ZM274.819 203.034H259.694V218.09H274.819V203.034ZM294.361 184.018H279.235V199.074H294.361V184.018ZM313.899 184.018H298.774V199.074H313.899V184.018ZM333.44 184.018H318.315V199.074H333.44V184.018ZM333.44 165H318.315V180.056H333.44V165Z" fill="#1D63ED"/>
</svg>
