<svg version="1.1" id="Layer_1" xmlns="http://www.w3.org/2000/svg" xmlns:xlink="http://www.w3.org/1999/xlink" x="0px" y="0px"
	 width="100%" viewBox="0 0 532 412" enable-background="new 0 0 532 412" xml:space="preserve">
<path fill="#FEFEFE" opacity="1.000000" stroke="none" 
	d="
M337.000000,413.000000 
	C224.666672,413.000000 112.833336,413.000000 1.000000,413.000000 
	C1.000000,275.666656 1.000000,138.333328 1.000000,1.000000 
	C178.333328,1.000000 355.666656,1.000000 533.000000,1.000000 
	C533.000000,138.333328 533.000000,275.666656 533.000000,413.000000 
	C467.833344,413.000000 402.666656,413.000000 337.000000,413.000000 
M361.500000,22.079336 
	C265.177643,22.078938 168.855270,22.071688 72.532913,22.082661 
	C46.468449,22.085630 25.072514,43.313396 25.062202,69.382172 
	C25.024042,165.870743 25.047924,262.359375 25.087440,358.847961 
	C25.097973,384.563385 46.508892,405.911743 72.252304,405.914886 
	C200.571030,405.930573 328.889771,405.926727 457.208496,405.911713 
	C483.688232,405.908600 504.912628,384.744415 504.915314,358.373260 
	C504.925140,262.217529 504.924683,166.061798 504.915314,69.906075 
	C504.912720,43.165287 483.791290,22.096783 456.989227,22.083799 
	C425.492828,22.068541 393.996399,22.079212 361.500000,22.079336 
z"/>
<path fill="#020202" opacity="1.000000" stroke="none" 
	d="
M362.000000,22.078987 
	C393.996399,22.079212 425.492828,22.068541 456.989227,22.083799 
	C483.791290,22.096783 504.912720,43.165287 504.915314,69.906075 
	C504.924683,166.061798 504.925140,262.217529 504.915314,358.373260 
	C504.912628,384.744415 483.688232,405.908600 457.208496,405.911713 
	C328.889771,405.926727 200.571030,405.930573 72.252304,405.914886 
	C46.508892,405.911743 25.097973,384.563385 25.087440,358.847961 
	C25.047924,262.359375 25.024042,165.870743 25.062202,69.382172 
	C25.072514,43.313396 46.468449,22.085630 72.532913,22.082661 
	C168.855270,22.071688 265.177643,22.078938 362.000000,22.078987 
M457.080200,120.500015 
	C457.080200,103.732544 457.080200,86.965080 457.080200,70.159760 
	C328.786316,70.159760 201.046463,70.159760 73.288834,70.159760 
	C73.288834,166.257919 73.288834,262.115814 73.288834,357.755981 
	C201.407043,357.755981 329.147583,357.755981 457.080200,357.755981 
	C457.080200,278.788086 457.080200,200.144058 457.080200,120.500015 
z"/>
<path fill="#FFFFFF" opacity="1.000000" stroke="none" 
	d="
M457.080200,121.000023 
	C457.080200,200.144058 457.080200,278.788086 457.080200,357.755981 
	C329.147583,357.755981 201.407043,357.755981 73.288834,357.755981 
	C73.288834,262.115814 73.288834,166.257919 73.288834,70.159760 
	C201.046463,70.159760 328.786316,70.159760 457.080200,70.159760 
	C457.080200,86.965080 457.080200,103.732544 457.080200,121.000023 
M123.141609,131.847610 
	C118.913795,142.588562 120.851555,151.997971 129.066284,160.179123 
	C145.826874,176.871216 162.530731,193.620300 179.249252,210.354614 
	C180.392456,211.498901 181.463516,212.715271 183.390274,214.778503 
	C181.561981,216.154099 179.805405,217.182083 178.408356,218.571548 
	C161.873672,235.016342 145.370911,251.493423 128.906052,268.008148 
	C119.520073,277.422577 118.327126,290.690826 125.861771,300.623169 
	C135.493317,313.319672 151.255432,313.756165 163.564606,301.498138 
	C186.817642,278.341705 210.010773,255.124939 233.179306,231.883942 
	C243.837952,221.191971 243.763626,206.727570 233.011322,195.946213 
	C209.720764,172.592697 186.410187,149.258926 163.043594,125.981560 
	C150.334747,113.321243 132.660080,115.698547 123.141609,131.847610 
M279.500610,262.073792 
	C273.337494,262.124298 267.096954,261.572235 261.027557,262.352142 
	C248.786163,263.925110 240.506470,274.824646 241.071243,287.637268 
	C241.601929,299.676117 251.350586,309.756531 263.768433,309.837524 
	C304.421631,310.102844 345.078583,310.150513 385.731598,309.888611 
	C399.560730,309.799530 409.169586,298.962952 408.918549,285.134644 
	C408.679962,271.994232 398.212311,262.087067 384.477051,262.079834 
	C349.818146,262.061615 315.159210,262.073792 279.500610,262.073792 
z"/>
<path fill="#030303" opacity="1.000000" stroke="none" 
	d="
M123.318451,131.510773 
	C132.660080,115.698547 150.334747,113.321243 163.043594,125.981560 
	C186.410187,149.258926 209.720764,172.592697 233.011322,195.946213 
	C243.763626,206.727570 243.837952,221.191971 233.179306,231.883942 
	C210.010773,255.124939 186.817642,278.341705 163.564606,301.498138 
	C151.255432,313.756165 135.493317,313.319672 125.861771,300.623169 
	C118.327126,290.690826 119.520073,277.422577 128.906052,268.008148 
	C145.370911,251.493423 161.873672,235.016342 178.408356,218.571548 
	C179.805405,217.182083 181.561981,216.154099 183.390274,214.778503 
	C181.463516,212.715271 180.392456,211.498901 179.249252,210.354614 
	C162.530731,193.620300 145.826874,176.871216 129.066284,160.179123 
	C120.851555,151.997971 118.913795,142.588562 123.318451,131.510773 
z"/>
<path fill="#020202" opacity="1.000000" stroke="none" 
	d="
M280.000458,262.073792 
	C315.159210,262.073792 349.818146,262.061615 384.477051,262.079834 
	C398.212311,262.087067 408.679962,271.994232 408.918549,285.134644 
	C409.169586,298.962952 399.560730,309.799530 385.731598,309.888611 
	C345.078583,310.150513 304.421631,310.102844 263.768433,309.837524 
	C251.350586,309.756531 241.601929,299.676117 241.071243,287.637268 
	C240.506470,274.824646 248.786163,263.925110 261.027557,262.352142 
	C267.096954,261.572235 273.337494,262.124298 280.000458,262.073792 
z"/>
</svg>